<mxfile host="Electron" agent="Mozilla/5.0 (Windows NT 10.0; Win64; x64) AppleWebKit/537.36 (KHTML, like Gecko) draw.io/28.1.2 Chrome/138.0.7204.243 Electron/37.4.0 Safari/537.36" version="28.1.2">
  <diagram name="Page-1" id="9Q_ugrdt4aFcJ51-JR9f">
    <mxGraphModel dx="922" dy="1434" grid="1" gridSize="10" guides="1" tooltips="1" connect="1" arrows="1" fold="1" page="1" pageScale="1" pageWidth="850" pageHeight="1100" math="0" shadow="0">
      <root>
        <mxCell id="0" />
        <mxCell id="1" parent="0" />
        <mxCell id="VwanmWOGEeTA1JKmFpth-1" value="Data Flow Diagram" style="text;strokeColor=none;fillColor=none;html=1;fontSize=24;fontStyle=1;verticalAlign=middle;align=center;" parent="1" vertex="1">
          <mxGeometry y="10" width="260" height="40" as="geometry" />
        </mxCell>
        <mxCell id="VwanmWOGEeTA1JKmFpth-2" value="" style="rounded=0;whiteSpace=wrap;html=1;fillColor=none;dashed=1;" parent="1" vertex="1">
          <mxGeometry x="40" y="110" width="180" height="690" as="geometry" />
        </mxCell>
        <mxCell id="VwanmWOGEeTA1JKmFpth-3" value="Sources" style="rounded=1;whiteSpace=wrap;html=1;fontSize=24;strokeColor=none;" parent="1" vertex="1">
          <mxGeometry x="75" y="80" width="110" height="50" as="geometry" />
        </mxCell>
        <mxCell id="VwanmWOGEeTA1JKmFpth-17" style="edgeStyle=orthogonalEdgeStyle;rounded=0;orthogonalLoop=1;jettySize=auto;html=1;" parent="1" source="VwanmWOGEeTA1JKmFpth-4" target="VwanmWOGEeTA1JKmFpth-15" edge="1">
          <mxGeometry relative="1" as="geometry" />
        </mxCell>
        <mxCell id="VwanmWOGEeTA1JKmFpth-18" style="edgeStyle=orthogonalEdgeStyle;rounded=0;orthogonalLoop=1;jettySize=auto;html=1;" parent="1" source="VwanmWOGEeTA1JKmFpth-4" target="VwanmWOGEeTA1JKmFpth-10" edge="1">
          <mxGeometry relative="1" as="geometry" />
        </mxCell>
        <mxCell id="VwanmWOGEeTA1JKmFpth-20" style="edgeStyle=orthogonalEdgeStyle;rounded=0;orthogonalLoop=1;jettySize=auto;html=1;" parent="1" source="VwanmWOGEeTA1JKmFpth-4" target="VwanmWOGEeTA1JKmFpth-16" edge="1">
          <mxGeometry relative="1" as="geometry" />
        </mxCell>
        <mxCell id="VwanmWOGEeTA1JKmFpth-4" value="CRM" style="image;html=1;image=img/lib/clip_art/general/Empty_Folder_128x128.png;fontColor=default;fontSize=16;" parent="1" vertex="1">
          <mxGeometry x="90" y="250" width="80" height="80" as="geometry" />
        </mxCell>
        <mxCell id="VwanmWOGEeTA1JKmFpth-24" style="edgeStyle=orthogonalEdgeStyle;rounded=0;orthogonalLoop=1;jettySize=auto;html=1;" parent="1" source="VwanmWOGEeTA1JKmFpth-6" target="VwanmWOGEeTA1JKmFpth-21" edge="1">
          <mxGeometry relative="1" as="geometry" />
        </mxCell>
        <mxCell id="VwanmWOGEeTA1JKmFpth-25" style="edgeStyle=orthogonalEdgeStyle;rounded=0;orthogonalLoop=1;jettySize=auto;html=1;" parent="1" source="VwanmWOGEeTA1JKmFpth-6" target="VwanmWOGEeTA1JKmFpth-22" edge="1">
          <mxGeometry relative="1" as="geometry" />
        </mxCell>
        <mxCell id="VwanmWOGEeTA1JKmFpth-26" style="edgeStyle=orthogonalEdgeStyle;rounded=0;orthogonalLoop=1;jettySize=auto;html=1;" parent="1" source="VwanmWOGEeTA1JKmFpth-6" target="VwanmWOGEeTA1JKmFpth-23" edge="1">
          <mxGeometry relative="1" as="geometry" />
        </mxCell>
        <mxCell id="VwanmWOGEeTA1JKmFpth-6" value="ERP" style="image;html=1;image=img/lib/clip_art/general/Empty_Folder_128x128.png;fontSize=16;" parent="1" vertex="1">
          <mxGeometry x="90" y="580" width="80" height="80" as="geometry" />
        </mxCell>
        <mxCell id="VwanmWOGEeTA1JKmFpth-8" value="" style="rounded=0;whiteSpace=wrap;html=1;fillColor=#f0a30a;dashed=1;strokeColor=#BD7000;fillStyle=hatch;fontColor=#000000;" parent="1" vertex="1">
          <mxGeometry x="290" y="160" width="180" height="640" as="geometry" />
        </mxCell>
        <mxCell id="VwanmWOGEeTA1JKmFpth-9" value="Bronze Layer" style="rounded=1;whiteSpace=wrap;html=1;fontSize=24;strokeColor=#BD7000;fillColor=#f0a30a;fontColor=#000000;" parent="1" vertex="1">
          <mxGeometry x="290" y="100" width="180" height="50" as="geometry" />
        </mxCell>
        <mxCell id="2YfACRPlU-4CZZkxdK6V-9" style="edgeStyle=orthogonalEdgeStyle;rounded=0;orthogonalLoop=1;jettySize=auto;html=1;" parent="1" source="VwanmWOGEeTA1JKmFpth-10" target="2YfACRPlU-4CZZkxdK6V-3" edge="1">
          <mxGeometry relative="1" as="geometry" />
        </mxCell>
        <mxCell id="VwanmWOGEeTA1JKmFpth-10" value="crm_sales_details" style="rounded=1;whiteSpace=wrap;html=1;fontSize=16;strokeColor=#BD7000;fillColor=#f0a30a;fontColor=#000000;" parent="1" vertex="1">
          <mxGeometry x="305" y="200" width="150" height="50" as="geometry" />
        </mxCell>
        <mxCell id="2YfACRPlU-4CZZkxdK6V-10" style="edgeStyle=orthogonalEdgeStyle;rounded=0;orthogonalLoop=1;jettySize=auto;html=1;" parent="1" source="VwanmWOGEeTA1JKmFpth-15" target="2YfACRPlU-4CZZkxdK6V-4" edge="1">
          <mxGeometry relative="1" as="geometry" />
        </mxCell>
        <mxCell id="VwanmWOGEeTA1JKmFpth-15" value="crm_cust_info" style="rounded=1;whiteSpace=wrap;html=1;fontSize=16;strokeColor=#BD7000;fillColor=#f0a30a;fontColor=#000000;" parent="1" vertex="1">
          <mxGeometry x="305" y="265" width="150" height="50" as="geometry" />
        </mxCell>
        <mxCell id="2YfACRPlU-4CZZkxdK6V-11" style="edgeStyle=orthogonalEdgeStyle;rounded=0;orthogonalLoop=1;jettySize=auto;html=1;" parent="1" source="VwanmWOGEeTA1JKmFpth-16" target="2YfACRPlU-4CZZkxdK6V-5" edge="1">
          <mxGeometry relative="1" as="geometry" />
        </mxCell>
        <mxCell id="VwanmWOGEeTA1JKmFpth-16" value="crm_prd_info" style="rounded=1;whiteSpace=wrap;html=1;fontSize=16;strokeColor=#BD7000;fillColor=#f0a30a;fontColor=#000000;" parent="1" vertex="1">
          <mxGeometry x="305" y="330" width="150" height="50" as="geometry" />
        </mxCell>
        <mxCell id="2YfACRPlU-4CZZkxdK6V-12" style="edgeStyle=orthogonalEdgeStyle;rounded=0;orthogonalLoop=1;jettySize=auto;html=1;" parent="1" source="VwanmWOGEeTA1JKmFpth-21" target="2YfACRPlU-4CZZkxdK6V-6" edge="1">
          <mxGeometry relative="1" as="geometry" />
        </mxCell>
        <mxCell id="VwanmWOGEeTA1JKmFpth-21" value="erp_cust_az12" style="rounded=1;whiteSpace=wrap;html=1;fontSize=16;strokeColor=#BD7000;fillColor=#f0a30a;fontColor=#000000;" parent="1" vertex="1">
          <mxGeometry x="305" y="530" width="150" height="50" as="geometry" />
        </mxCell>
        <mxCell id="2YfACRPlU-4CZZkxdK6V-13" style="edgeStyle=orthogonalEdgeStyle;rounded=0;orthogonalLoop=1;jettySize=auto;html=1;" parent="1" source="VwanmWOGEeTA1JKmFpth-22" target="2YfACRPlU-4CZZkxdK6V-7" edge="1">
          <mxGeometry relative="1" as="geometry" />
        </mxCell>
        <mxCell id="VwanmWOGEeTA1JKmFpth-22" value="erp_loc_a101" style="rounded=1;whiteSpace=wrap;html=1;fontSize=16;strokeColor=#BD7000;fillColor=#f0a30a;fontColor=#000000;" parent="1" vertex="1">
          <mxGeometry x="305" y="595" width="150" height="50" as="geometry" />
        </mxCell>
        <mxCell id="2YfACRPlU-4CZZkxdK6V-14" style="edgeStyle=orthogonalEdgeStyle;rounded=0;orthogonalLoop=1;jettySize=auto;html=1;" parent="1" source="VwanmWOGEeTA1JKmFpth-23" target="2YfACRPlU-4CZZkxdK6V-8" edge="1">
          <mxGeometry relative="1" as="geometry" />
        </mxCell>
        <mxCell id="VwanmWOGEeTA1JKmFpth-23" value="erp_px_cat_g1v2" style="rounded=1;whiteSpace=wrap;html=1;fontSize=16;strokeColor=#BD7000;fillColor=#f0a30a;fontColor=#000000;" parent="1" vertex="1">
          <mxGeometry x="305" y="660" width="150" height="50" as="geometry" />
        </mxCell>
        <mxCell id="2YfACRPlU-4CZZkxdK6V-1" value="" style="rounded=0;whiteSpace=wrap;html=1;fillColor=#f5f5f5;dashed=1;strokeColor=#666666;fillStyle=hatch;fontColor=#333333;" parent="1" vertex="1">
          <mxGeometry x="520" y="160" width="180" height="640" as="geometry" />
        </mxCell>
        <mxCell id="2YfACRPlU-4CZZkxdK6V-2" value="Sliver Layer" style="rounded=1;whiteSpace=wrap;html=1;fontSize=24;strokeColor=#666666;fillColor=#f5f5f5;fontColor=#333333;" parent="1" vertex="1">
          <mxGeometry x="520" y="100" width="180" height="50" as="geometry" />
        </mxCell>
        <mxCell id="2YfACRPlU-4CZZkxdK6V-3" value="crm_sales_details" style="rounded=1;whiteSpace=wrap;html=1;fontSize=16;strokeColor=#666666;fillColor=#f5f5f5;fontColor=#333333;" parent="1" vertex="1">
          <mxGeometry x="535" y="200" width="150" height="50" as="geometry" />
        </mxCell>
        <mxCell id="2YfACRPlU-4CZZkxdK6V-4" value="crm_cust_info" style="rounded=1;whiteSpace=wrap;html=1;fontSize=16;strokeColor=#666666;fillColor=#f5f5f5;fontColor=#333333;" parent="1" vertex="1">
          <mxGeometry x="535" y="265" width="150" height="50" as="geometry" />
        </mxCell>
        <mxCell id="2YfACRPlU-4CZZkxdK6V-5" value="crm_prd_info" style="rounded=1;whiteSpace=wrap;html=1;fontSize=16;strokeColor=#666666;fillColor=#f5f5f5;fontColor=#333333;" parent="1" vertex="1">
          <mxGeometry x="535" y="330" width="150" height="50" as="geometry" />
        </mxCell>
        <mxCell id="2YfACRPlU-4CZZkxdK6V-6" value="erp_cust_az12" style="rounded=1;whiteSpace=wrap;html=1;fontSize=16;strokeColor=#666666;fillColor=#f5f5f5;fontColor=#333333;" parent="1" vertex="1">
          <mxGeometry x="535" y="530" width="150" height="50" as="geometry" />
        </mxCell>
        <mxCell id="2YfACRPlU-4CZZkxdK6V-7" value="erp_loc_a101" style="rounded=1;whiteSpace=wrap;html=1;fontSize=16;strokeColor=#666666;fillColor=#f5f5f5;fontColor=#333333;" parent="1" vertex="1">
          <mxGeometry x="535" y="595" width="150" height="50" as="geometry" />
        </mxCell>
        <mxCell id="2YfACRPlU-4CZZkxdK6V-8" value="erp_px_cat_g1v2" style="rounded=1;whiteSpace=wrap;html=1;fontSize=16;strokeColor=#666666;fillColor=#f5f5f5;fontColor=#333333;" parent="1" vertex="1">
          <mxGeometry x="535" y="660" width="150" height="50" as="geometry" />
        </mxCell>
        <mxCell id="q8EybAvj3lrBkK4coaWs-1" value="" style="rounded=0;whiteSpace=wrap;html=1;fillColor=#e3c800;dashed=1;strokeColor=#B09500;fillStyle=hatch;fontColor=#000000;" vertex="1" parent="1">
          <mxGeometry x="770" y="160" width="180" height="640" as="geometry" />
        </mxCell>
        <mxCell id="q8EybAvj3lrBkK4coaWs-2" value="Gold Layer" style="rounded=1;whiteSpace=wrap;html=1;fontSize=24;strokeColor=#B09500;fillColor=#e3c800;fontColor=#000000;" vertex="1" parent="1">
          <mxGeometry x="770" y="100" width="180" height="50" as="geometry" />
        </mxCell>
        <mxCell id="q8EybAvj3lrBkK4coaWs-3" value="fact_sales" style="rounded=1;whiteSpace=wrap;html=1;fontSize=16;strokeColor=#B09500;fillColor=#e3c800;fontColor=#000000;" vertex="1" parent="1">
          <mxGeometry x="785" y="215" width="150" height="50" as="geometry" />
        </mxCell>
        <mxCell id="q8EybAvj3lrBkK4coaWs-4" value="dim_customers" style="rounded=1;whiteSpace=wrap;html=1;fontSize=16;strokeColor=#B09500;fillColor=#e3c800;fontColor=#000000;" vertex="1" parent="1">
          <mxGeometry x="785" y="410" width="150" height="50" as="geometry" />
        </mxCell>
        <mxCell id="q8EybAvj3lrBkK4coaWs-5" value="dim_products" style="rounded=1;whiteSpace=wrap;html=1;fontSize=16;strokeColor=#B09500;fillColor=#e3c800;fontColor=#000000;" vertex="1" parent="1">
          <mxGeometry x="785" y="595" width="150" height="50" as="geometry" />
        </mxCell>
        <mxCell id="q8EybAvj3lrBkK4coaWs-9" value="" style="endArrow=classic;html=1;rounded=0;jumpStyle=gap;" edge="1" parent="1" target="q8EybAvj3lrBkK4coaWs-3">
          <mxGeometry width="50" height="50" relative="1" as="geometry">
            <mxPoint x="670" y="240" as="sourcePoint" />
            <mxPoint x="720" y="190" as="targetPoint" />
          </mxGeometry>
        </mxCell>
        <mxCell id="q8EybAvj3lrBkK4coaWs-10" value="" style="endArrow=classic;html=1;rounded=0;entryX=0;entryY=0.5;entryDx=0;entryDy=0;exitX=1;exitY=0.5;exitDx=0;exitDy=0;jumpStyle=gap;" edge="1" parent="1" source="2YfACRPlU-4CZZkxdK6V-4" target="q8EybAvj3lrBkK4coaWs-4">
          <mxGeometry width="50" height="50" relative="1" as="geometry">
            <mxPoint x="750" y="290" as="sourcePoint" />
            <mxPoint x="800" y="285.5" as="targetPoint" />
          </mxGeometry>
        </mxCell>
        <mxCell id="q8EybAvj3lrBkK4coaWs-11" value="" style="endArrow=classic;html=1;rounded=0;entryX=0;entryY=0.5;entryDx=0;entryDy=0;exitX=1;exitY=0.5;exitDx=0;exitDy=0;jumpStyle=gap;" edge="1" parent="1" source="2YfACRPlU-4CZZkxdK6V-6" target="q8EybAvj3lrBkK4coaWs-4">
          <mxGeometry width="50" height="50" relative="1" as="geometry">
            <mxPoint x="700" y="360" as="sourcePoint" />
            <mxPoint x="800" y="520.5" as="targetPoint" />
          </mxGeometry>
        </mxCell>
        <mxCell id="q8EybAvj3lrBkK4coaWs-12" value="" style="endArrow=classic;html=1;rounded=0;entryX=0;entryY=0.75;entryDx=0;entryDy=0;exitX=1;exitY=0.5;exitDx=0;exitDy=0;jumpStyle=gap;" edge="1" parent="1" source="2YfACRPlU-4CZZkxdK6V-7" target="q8EybAvj3lrBkK4coaWs-4">
          <mxGeometry width="50" height="50" relative="1" as="geometry">
            <mxPoint x="685" y="620" as="sourcePoint" />
            <mxPoint x="785" y="520" as="targetPoint" />
          </mxGeometry>
        </mxCell>
        <mxCell id="q8EybAvj3lrBkK4coaWs-15" value="" style="endArrow=classic;html=1;rounded=0;entryX=0;entryY=0.5;entryDx=0;entryDy=0;jumpStyle=gap;" edge="1" parent="1" target="q8EybAvj3lrBkK4coaWs-5">
          <mxGeometry width="50" height="50" relative="1" as="geometry">
            <mxPoint x="685" y="360" as="sourcePoint" />
            <mxPoint x="780" y="460" as="targetPoint" />
          </mxGeometry>
        </mxCell>
        <mxCell id="q8EybAvj3lrBkK4coaWs-17" value="" style="endArrow=classic;html=1;rounded=0;entryX=0;entryY=0.5;entryDx=0;entryDy=0;exitX=1;exitY=0.25;exitDx=0;exitDy=0;jumpStyle=gap;" edge="1" parent="1" source="2YfACRPlU-4CZZkxdK6V-8" target="q8EybAvj3lrBkK4coaWs-5">
          <mxGeometry width="50" height="50" relative="1" as="geometry">
            <mxPoint x="750" y="595" as="sourcePoint" />
            <mxPoint x="850" y="755" as="targetPoint" />
          </mxGeometry>
        </mxCell>
      </root>
    </mxGraphModel>
  </diagram>
</mxfile>
